PathFileType	4	(X/Y/Z)	C:\Users\ebm\Documents\Erivelton\Erivelton2\wc1.trc
DataRate	CameraRate	NumFrames	NumMarkers	Units	OrigDataRate	OrigDataStartFrame	OrigNumFrames
150.00	150.00	       5	28	mm	150.00	563	       750
Frame#	Time	IJ			PX			C7			T8			RAC			RAS			RPS			RAI			RPI			RLE			RME			RRS			RUS			R3M			R5M			LAC			LAS			LPS			LAI			LPI			LLE			LME			LRS			LUS			L3M			L5M			RW			LW			V_mid_elbow_r			V_mid_elbow_l			V_mid_wrist_r			V_mid_wrist_l			V_mid_trunk_low			V_mid_trunk_upp			
		X1	Y1	Z1	X2	Y2	Z2	X3	Y3	Z3	X4	Y4	Z4	X5	Y5	Z5	X6	Y6	Z6	X7	Y7	Z7	X8	Y8	Z8	X9	Y9	Z9	X10	Y10	Z10	X11	Y11	Z11	X12	Y12	Z12	X13	Y13	Z13	X14	Y14	Z14	X15	Y15	Z15	X16	Y16	Z16	X17	Y17	Z17	X18	Y18	Z18	X19	Y19	Z19	X20	Y20	Z20	X21	Y21	Z21	X22	Y22	Z22	X23	Y23	Z23	X24	Y24	Z24	X25	Y25	Z25	X26	Y26	Z26	X27	Y27	Z27	X28	Y28	Z28	

563	3.747	2457.86646	1028.44092	-200.85118	2480.08008	864.07837	-185.81053	2323.02368	1119.21960	-207.16005	2256.98438	965.15894	-195.91423	2377.88354	1064.36658	4.16697	2409.34644	871.82068	65.80632	2359.53198	871.94501	66.00010	2418.25586	797.31012	87.68618	2364.89087	794.06122	88.56890	2378.70239	733.32397	98.89488	2368.69287	710.77899	25.60829	2551.79517	528.46960	148.08438	2494.77759	514.25769	160.40965	2558.13916	440.17474	171.18654	2521.19946	430.52325	160.62733	2364.13843	1056.57397	-388.85287	2367.08691	884.25507	-458.85257	2322.51855	873.56781	-442.47720	2385.53076	807.13196	-477.04498	2335.91382	792.49298	-458.67633	2378.33228	722.47491	-489.45419	2355.28955	700.52661	-419.91312	2545.71143	517.42303	-509.93716	2493.12549	487.38757	-533.01447	2558.64111	425.16901	-531.99945	2518.89380	421.53549	-530.99030	2439.20142	299.35968	131.43727	2426.99121	297.64148	-497.24380	
564	3.753	2457.85693	1028.43665	-200.85416	2480.07568	864.08087	-185.80246	2323.03882	1119.23364	-207.17888	2257.00171	965.15021	-195.88509	2377.93481	1064.37585	4.06137	2409.34351	871.83691	65.81885	2359.54248	871.96490	65.99728	2418.26074	797.33087	87.68858	2364.90601	794.08655	88.57191	2378.70923	733.33923	98.89262	2368.69360	710.79102	25.60477	2551.79639	528.47205	148.08926	2494.76660	514.26685	160.41255	2558.11572	440.18320	171.19325	2521.18384	430.54950	160.63870	2364.15259	1056.58704	-388.86255	2367.08081	884.26233	-458.86539	2322.51514	873.57275	-442.47543	2385.53003	807.13568	-477.04810	2335.90283	792.50391	-458.67972	2378.31787	722.47565	-489.46292	2355.28271	700.53699	-419.91617	2545.70532	517.43781	-509.93808	2493.12134	487.39081	-532.99890	2558.63159	425.17273	-532.00244	2518.88843	421.53809	-530.97345	2439.19189	299.36307	131.43727	2427.00269	297.63821	-497.23358	
565	3.760	2457.85132	1028.43896	-200.85338	2480.05298	864.09308	-185.80434	2323.02856	1119.24280	-207.18651	2257.01245	965.14917	-195.88452	2377.92358	1064.40002	4.10502	2409.37817	871.86108	65.81725	2359.55713	871.97809	65.99890	2418.28271	797.35492	87.67311	2364.91382	794.10065	88.56455	2378.71753	733.36719	98.88353	2368.70703	710.81519	25.59999	2551.77759	528.51227	148.15958	2494.76611	514.28217	160.41118	2558.10522	440.19440	171.17776	2521.17358	430.54135	160.62317	2364.14893	1056.59961	-388.86554	2367.09082	884.27203	-458.86612	2322.51196	873.58185	-442.50345	2385.52979	807.14276	-477.05911	2335.90820	792.50854	-458.69119	2378.32715	722.47937	-489.46005	2355.30713	700.51508	-419.90829	2545.69971	517.42877	-509.94559	2493.12524	487.39066	-533.00262	2558.61646	425.18192	-532.00769	2518.87817	421.52377	-530.98712	2439.19043	299.37540	131.42982	2426.99756	297.64230	-497.24490	
566	3.767	2457.86108	1028.46545	-200.86411	2480.05859	864.10925	-185.78809	2323.04810	1119.25244	-207.20015	2257.00806	965.15558	-195.89017	2377.95239	1064.42212	4.05308	2409.38477	871.87500	65.80620	2359.56421	871.99915	66.00052	2418.29321	797.37109	87.67617	2364.92529	794.12787	88.56155	2378.74658	733.38055	98.87642	2368.74292	710.84119	25.58453	2551.79004	528.49011	148.08417	2494.76221	514.30286	160.40965	2558.09717	440.19348	171.18999	2521.15625	430.56989	160.62704	2364.15698	1056.60437	-388.86694	2367.08936	884.27399	-458.87598	2322.51367	873.58569	-442.50897	2385.53345	807.14648	-477.04102	2335.90381	792.51202	-458.69714	2378.33008	722.48804	-489.46783	2355.30518	700.53619	-419.91003	2545.70532	517.43713	-509.94516	2493.10425	487.39331	-533.00812	2558.61816	425.17056	-531.99591	2518.86792	421.52386	-530.97797	2439.18701	299.36981	131.42699	2426.99219	297.65857	-497.25293	
567	3.773	2457.87012	1028.46741	-200.86493	2480.05103	864.12073	-185.78154	2323.04395	1119.25757	-207.19171	2256.99268	965.19092	-195.89865	2377.93701	1064.45032	4.15199	2409.38965	871.89026	65.81771	2359.57324	872.02405	65.99100	2418.30396	797.39667	87.67222	2364.94092	794.14447	88.55387	2378.75928	733.40558	98.87699	2368.74536	710.86011	25.56916	2551.77026	528.52478	148.14264	2494.76318	514.31360	160.40588	2558.09497	440.21420	171.17999	2521.14575	430.59009	160.63704	2364.14966	1056.59802	-388.86371	2367.09473	884.27698	-458.87598	2322.52051	873.58685	-442.51144	2385.52979	807.15234	-477.07013	2335.91382	792.52539	-458.70410	2378.33081	722.48767	-489.47458	2355.27539	700.54639	-419.92676	2545.70117	517.44263	-509.95053	2493.10278	487.40164	-533.00720	2558.61963	425.18024	-532.00195	2518.85474	421.53268	-530.98236	2439.19458	299.37271	131.42772	2426.99731	297.66315	-497.24548	
